<svg id="Layer_1" data-name="Layer 1" xmlns="http://www.w3.org/2000/svg" viewBox="0 0 40 40">
    <title>icons</title>
    <path d="M4.2,32.28a14,14,0,0,0,10.05-2.85,7.05,7.05,0,0,1-6.43-4.81,7.12,7.12,0,0,0,3.08-.13,6.88,6.88,0,0,1-4-2.46,6.73,6.73,0,0,1-1.5-4.38,7,7,0,0,0,3,.84c-3-2.53-3.73-5.57-2.07-9.22A19.77,19.77,0,0,0,20.6,16.52a1.6,1.6,0,0,0,0-.22,6.67,6.67,0,0,1,1.33-5.6,6.68,6.68,0,0,1,6.46-2.57A6.56,6.56,0,0,1,32.21,10a.37.37,0,0,0,.41.12,13.31,13.31,0,0,0,3.81-1.44l.32-.16a7.08,7.08,0,0,1-2.87,3.74,14.77,14.77,0,0,0,3.74-.94c-.12.17-.24.35-.36.51s-.25.35-.39.51a14.3,14.3,0,0,1-2.42,2.31.43.43,0,0,0-.19.4,19.78,19.78,0,0,1-2.83,10.82A18.62,18.62,0,0,1,22.17,34a19.92,19.92,0,0,1-8.33,1.38A19.48,19.48,0,0,1,6.55,33.6c-.81-.37-1.58-.83-2.38-1.24Z"/></svg>