<svg id="Layer_1" data-name="Layer 1" xmlns="http://www.w3.org/2000/svg" viewBox="0 0 40 40"><title>icons</title><path d="M28.86,1c0,.59,0,1.18,0,1.76,0,1.49,0,3,0,4.46,0,.27-.07.34-.34.34-1.06,0-2.12,0-3.18,0a6.62,6.62,0,0,0-1.09.13,1.44,1.44,0,0,0-1.18,1.42c-.06,1.37,0,2.75-.07,4.12,0,.26.16.21.31.21h5.58L28.19,20H23v.47q0,9.13,0,18.26c0,.09,0,.19,0,.28h-7.1V20H11.15c0-.13,0-.23,0-.32,0-2,0-3.93,0-5.89,0-.28.08-.36.36-.35,1.36,0,2.71,0,4.07,0,.26,0,.34-.08.34-.34,0-1.76,0-3.52.06-5.28a8.6,8.6,0,0,1,.91-3.71,5,5,0,0,1,3-2.56c.74-.23,1.53-.33,2.3-.5L22.49,1Z"/></svg>