<svg id="Layer_1" data-name="Layer 1" xmlns="http://www.w3.org/2000/svg" viewBox="0 0 40 40"><defs><style>.cls-1{fill:#010101;}</style></defs><title>icons</title><path class="cls-1" d="M25.49,26.07a8.15,8.15,0,0,1,1.08,5c0,2.12,0,4.23,0,6.34,0,.68,0,.69-.68.69H17.61c-.62,0-.67,0-.67-.67V33.29l-1.44.14a6.53,6.53,0,0,1-5.94-2.19A7,7,0,0,1,9,30.4c-.8-1.26-1.58-2.54-2.41-3.79a7.76,7.76,0,0,0-1-1L5,25a2.17,2.17,0,0,1,1.65-.19,4.18,4.18,0,0,1,2.89,2.08,8.55,8.55,0,0,0,1.15,1.52,5.21,5.21,0,0,0,5.13,1.45c1.27-.29,1-.16,1.21-1.31a5.79,5.79,0,0,1,.76-2.18c.07-.11.13-.23.22-.39-.56-.11-1.08-.2-1.59-.31a10.61,10.61,0,0,1-5.4-2.79,8.43,8.43,0,0,1-2.48-5.83A22.52,22.52,0,0,1,9,11.41a6.44,6.44,0,0,1,1.66-3.18.77.77,0,0,0,.16-.65,8.05,8.05,0,0,1,0-5.33c.1-.3.21-.38.51-.29A6.16,6.16,0,0,1,14.2,3.67c.54.56,1,1.17,1.58,1.79,1.39-1,3-1,4.64-1.13a19.39,19.39,0,0,1,5.32.3,16.79,16.79,0,0,1,1.93.66c.71-.67,1.45-1.36,2.17-2.06A5.11,5.11,0,0,1,32.14,2c.33-.09.5,0,.61.32a7.25,7.25,0,0,1,0,5.19c-.1.25-.16.49.07.71a6.24,6.24,0,0,1,1.89,4.14,40.62,40.62,0,0,1,.21,5,8.27,8.27,0,0,1-4.39,7A12.6,12.6,0,0,1,25.91,26l-.28,0A.75.75,0,0,0,25.49,26.07Z"/></svg>