<svg id="Layer_1" data-name="Layer 1" xmlns="http://www.w3.org/2000/svg" viewBox="0 0 40 40"><title>icons</title><path d="M35.68,7.56v.65c-.75.68-1.5,1.37-2.26,2a1.48,1.48,0,0,0-.52,1.2c0,5.72,0,11.44,0,17.17a1.85,1.85,0,0,0,.48,1.12c.72.79,1.51,1.51,2.27,2.26v.39a2.34,2.34,0,0,1-.45.07H23.8a1.76,1.76,0,0,1-.46-.15c.06-.19.07-.44.2-.57.64-.66,1.28-1.3,2-1.91a1.77,1.77,0,0,0,.63-1.43q0-6.42,0-12.86v-.68a1.38,1.38,0,0,0-.36.56q-3.22,8.18-6.44,16.37c-.12.3-.16.64-.68.63s-.62-.23-.78-.59l-7.5-16.35-.3-.62-.13,0v.68c0,3.63,0,7.27,0,10.9A2.19,2.19,0,0,0,10.47,28c1,1.17,1.95,2.34,2.9,3.53a4.33,4.33,0,0,1,.38.85H4.32v-.65a.67.67,0,0,0,.17-.08C5.57,30.34,6.66,29,7.71,27.71a1.64,1.64,0,0,0,.33-1q0-7,0-14.1a1.88,1.88,0,0,0-.41-1.05C6.77,10.52,5.87,9.49,5,8.42a4.65,4.65,0,0,1-.41-.86h.8c2.59,0,5.18,0,7.77,0a.84.84,0,0,1,.92.58q3.18,7.07,6.42,14.12c.09.2.2.39.33.66l.23-.54q2.87-7.12,5.71-14.27a.72.72,0,0,1,.8-.55C30.28,7.57,33,7.56,35.68,7.56Z"/></svg>