<svg id="Layer_1" data-name="Layer 1" xmlns="http://www.w3.org/2000/svg" viewBox="0 0 40 40"><title>icons</title><path d="M2.62,22.72V17.29a1.88,1.88,0,0,0,0-.33c.06-.93.1-1.87.16-2.81a12.77,12.77,0,0,1,.75-3.87A4.2,4.2,0,0,1,6.84,7.51a16.67,16.67,0,0,1,2.45-.24c3-.11,6-.24,8.92-.26,3.23,0,6.45,0,9.67.13,1.67,0,3.35.15,5,.33a4,4,0,0,1,3.22,2.16A8.17,8.17,0,0,1,37,12.84c.14,1.53.21,3.06.31,4.6,0,.11,0,.22.05.33v4.48c0,.11,0,.22-.05.33-.06,1-.1,2.08-.17,3.11a14.51,14.51,0,0,1-.6,3.64,4.44,4.44,0,0,1-4.23,3.28c-2.68.15-5.37.29-8.06.34-2.88.06-5.75.07-8.63,0-2.7-.07-5.4-.21-8.09-.4a4.35,4.35,0,0,1-4.17-3.39,18.74,18.74,0,0,1-.62-4.28C2.71,24.16,2.67,23.44,2.62,22.72ZM26.56,20l-10.9-6.54V26.54Z"/></svg>