<svg id="Layer_1" data-name="Layer 1" xmlns="http://www.w3.org/2000/svg" viewBox="0 0 40 40"><defs><style>.cls-1{fill:#fff;}</style></defs><title>icons</title><path id="LinkedIn" class="cls-1" d="M34.87,23.21v11H28.5V24c0-2.58-.93-4.34-3.23-4.34A3.49,3.49,0,0,0,22,22a4.3,4.3,0,0,0-.22,1.55V34.21H15.41s.08-17.38,0-19.18h6.37v2.72l0,.06h0v-.06a6.35,6.35,0,0,1,5.75-3.17C31.72,14.58,34.87,17.32,34.87,23.21ZM8.74,5.79a3.32,3.32,0,1,0-.09,6.63h0a3.32,3.32,0,1,0,0-6.63ZM5.51,34.21h6.37V15H5.51Z"/></svg>
