<svg id="Layer_1" data-name="Layer 1" xmlns="http://www.w3.org/2000/svg" viewBox="0 0 40 40"><defs><style>.cls-1{isolation:isolate;}.cls-2{fill:#010101;}</style></defs><title>icons</title><g id="α" class="cls-1"><g class="cls-1"><path class="cls-2" d="M32.68,37.91a2.67,2.67,0,0,1-1.78-.63,5.68,5.68,0,0,1-1.36-2,21.85,21.85,0,0,1-1.17-3.41Q27.8,29.84,27.16,27H27a34.72,34.72,0,0,1-2.61,5.19,16.57,16.57,0,0,1-2.87,3.51,9.89,9.89,0,0,1-3.31,2,11.62,11.62,0,0,1-3.91.63,10.59,10.59,0,0,1-4.67-1,10.33,10.33,0,0,1-3.61-2.94,14.12,14.12,0,0,1-2.33-4.6,20.34,20.34,0,0,1-.84-6.05,24.71,24.71,0,0,1,.88-6.82,16.31,16.31,0,0,1,2.56-5.35A11.64,11.64,0,0,1,10.45,8a12.24,12.24,0,0,1,5.62-1.25,10.11,10.11,0,0,1,3.27.5,9.08,9.08,0,0,1,2.58,1.37,9.4,9.4,0,0,1,2,2,19,19,0,0,1,1.53,2.54A23,23,0,0,1,26.6,16c.34,1,.65,1.94.94,2.9h.06c.2-.67.47-1.49.82-2.47s.72-2,1.1-3.05.76-2.11,1.12-3.14.66-2,.9-2.76h3.05c-.35,1-.78,2.09-1.28,3.4s-1,2.66-1.57,4.05L30.11,19.1c-.54,1.37-1,2.59-1.42,3.67q.68,2.79,1.2,4.8t1,3.42c.28.94.54,1.7.77,2.29a7.74,7.74,0,0,0,.68,1.36,1.87,1.87,0,0,0,.63.65,1.4,1.4,0,0,0,.63.16,4.22,4.22,0,0,0,.82-.08,4.08,4.08,0,0,0,.79-.22V37.5a8.16,8.16,0,0,1-1.2.31A7.35,7.35,0,0,1,32.68,37.91ZM26.16,22.83c-.52-1.82-1.05-3.55-1.57-5.2a20.82,20.82,0,0,0-1.87-4.33,9.39,9.39,0,0,0-2.68-3,6.66,6.66,0,0,0-3.91-1.1,9,9,0,0,0-4.36,1A9.78,9.78,0,0,0,8.5,13.2a13.77,13.77,0,0,0-2.06,4.51,22.3,22.3,0,0,0-.7,5.79,19.1,19.1,0,0,0,.64,5.17,11.69,11.69,0,0,0,1.84,3.87A8.06,8.06,0,0,0,11.11,35a8.37,8.37,0,0,0,3.81.85,7.18,7.18,0,0,0,3.32-.78,9.6,9.6,0,0,0,2.82-2.23,17.62,17.62,0,0,0,2.37-3.51,37.48,37.48,0,0,0,2-4.6Z"/></g></g></svg>