<svg id="Layer_1" data-name="Layer 1" xmlns="http://www.w3.org/2000/svg" viewBox="0 0 40 40"><defs><style>.cls-1{fill:#010101;}</style></defs><title>icons</title><path class="cls-1" d="M26,20.62,19.5,16.4l.7-.35c3.35-1.54,5.05-4,5.05-7.17a7.69,7.69,0,0,0-2.41-6A8.69,8.69,0,0,0,16.75.73,9.36,9.36,0,0,0,9.93,3.2,9.2,9.2,0,0,0,7.4,10.08V38.73h2.75v-29A6.53,6.53,0,0,1,11.85,5,6.42,6.42,0,0,1,16.6,3.27,5.6,5.6,0,0,1,20.84,5a6.17,6.17,0,0,1,1.61,4.41,5.8,5.8,0,0,1-.86,3.23,6.65,6.65,0,0,1-2.75,2.24l-2.19,1.07v1.59l8.16,5.37a13,13,0,0,1,4,3.75,8,8,0,0,1,1.09,4.14A5.93,5.93,0,0,1,28.19,35a6.44,6.44,0,0,1-4.89,1.79,6.36,6.36,0,0,1-5-1.84,7.21,7.21,0,0,1-1.71-4.86v-.25H14.1v.25a9,9,0,0,0,2.53,6.76,9.43,9.43,0,0,0,6.82,2.44,10.15,10.15,0,0,0,4.69-1.07,8.22,8.22,0,0,0,3.27-3,8.07,8.07,0,0,0,1.19-4.3,10.22,10.22,0,0,0-1.54-5.59A16.4,16.4,0,0,0,26,20.62Z"/></svg>