<svg id="Layer_1" data-name="Layer 1" xmlns="http://www.w3.org/2000/svg" viewBox="0 0 40 40"><defs><style>.cls-1{fill:#010101;}</style></defs><title>icons</title><path class="cls-1" d="M34.94,30.23A19,19,0,0,0,37.7,20a18.67,18.67,0,0,0-2.36-9.4,16.56,16.56,0,0,0-6.42-6.39A18.08,18.08,0,0,0,20,2a18.09,18.09,0,0,0-8.95,2.26,16.71,16.71,0,0,0-6.39,6.37A18.58,18.58,0,0,0,2.3,20,18.94,18.94,0,0,0,5.06,30.23a13.62,13.62,0,0,0,6.33,5.47H3.15v2.35H17.5V35.53l-.22,0A13.49,13.49,0,0,1,6.63,27.69,17.13,17.13,0,0,1,5.05,20.2,16.76,16.76,0,0,1,7,12.09a14.36,14.36,0,0,1,5.36-5.57A14.82,14.82,0,0,1,20,4.5a14.9,14.9,0,0,1,7.55,2A14.1,14.1,0,0,1,32.93,12a16.72,16.72,0,0,1,2,8.2,17.47,17.47,0,0,1-1.55,7.49A13.63,13.63,0,0,1,29,33a13.89,13.89,0,0,1-6.36,2.5l-.22,0v2.52H36.8V35.7H28.57A13.57,13.57,0,0,0,34.94,30.23Z"/></svg>