<svg xmlns="http://www.w3.org/2000/svg" xmlns:xlink="http://www.w3.org/1999/xlink" viewBox="0 0 78.166 78.166">
  <defs>
    <style>
      .cls-1 {
        fill: #164da1;
      }

      .cls-2 {
        fill: #fff;
      }

      .cls-3 {
        filter: url(#Rectangle_535);
      }
    </style>
    <filter id="Rectangle_535" x="0" y="0" width="78.166" height="78.166" filterUnits="userSpaceOnUse">
      <feOffset dy="3" input="SourceAlpha"/>
      <feGaussianBlur stdDeviation="3" result="blur"/>
      <feFlood flood-opacity="0.161"/>
      <feComposite operator="in" in2="blur"/>
      <feComposite in="SourceGraphic"/>
    </filter>
  </defs>
  <g id="Group_309" data-name="Group 309" transform="translate(-1241 -666)">
    <g class="cls-3" transform="matrix(1, 0, 0, 1, 1241, 666)">
      <rect id="Rectangle_535-2" data-name="Rectangle 535" class="cls-1" width="60.166" height="60.166" rx="30.083" transform="translate(9 6)"/>
    </g>
    <path id="Path_450" data-name="Path 450" class="cls-2" d="M11.239-21.563a3.724,3.724,0,0,0-1.123.165,5.1,5.1,0,0,0-1.018.449,3.4,3.4,0,0,0-.853.689,5.055,5.055,0,0,0-.629.883,3.008,3.008,0,0,0-.6-.883,4.3,4.3,0,0,0-.853-.689A4.261,4.261,0,0,0,5.147-21.4a3.821,3.821,0,0,0-1.093-.165,4.023,4.023,0,0,0-1.6.314,4.251,4.251,0,0,0-1.3.868,3.763,3.763,0,0,0-.868,1.287,4.556,4.556,0,0,0-.329,1.572.984.984,0,0,1,.03.239.984.984,0,0,0,.03.239,1.046,1.046,0,0,1,.03.254.556.556,0,0,0,.09.284l.06.329A11.2,11.2,0,0,0,1.824-13.2a25.639,25.639,0,0,0,2.335,2.739Q5.372-9.229,6.315-8.42t1.063.9l.239.21.3-.21q.09-.09,1.108-.943a29.385,29.385,0,0,0,2.23-2.111A30.875,30.875,0,0,0,13.6-13.33,7.461,7.461,0,0,0,15.041-16.2l.15-.329a1.175,1.175,0,0,1,.03-.254,1.175,1.175,0,0,0,.03-.254.984.984,0,0,1,.03-.239.486.486,0,0,0,0-.239,3.482,3.482,0,0,0-.3-1.572,4.43,4.43,0,0,0-.868-1.287,3.822,3.822,0,0,0-1.3-.868A4.091,4.091,0,0,0,11.239-21.563Z" transform="translate(1272.213 716.521)"/>
  </g>
</svg>
