<svg xmlns="http://www.w3.org/2000/svg" width="17" height="17" viewBox="0 0 17 17">
    <path fill="#FFF" fill-rule="evenodd" d="M0 8.716c0 3.85 2.435 7.117 5.813 8.27.425.08.58-.19.58-.42 0-.208-.007-.756-.011-1.483-2.365.527-2.863-1.168-2.863-1.168-.387-1.007-.944-1.275-.944-1.275-.772-.541.058-.53.058-.53.853.061 1.302.898 1.302.898.759 1.332 1.99.947 2.474.724.077-.563.297-.947.54-1.165-1.888-.22-3.872-.968-3.872-4.307 0-.952.33-1.73.875-2.34-.087-.22-.38-1.106.083-2.305 0 0 .714-.235 2.337.893A7.955 7.955 0 0 1 8.5 4.214c.722.004 1.45.1 2.129.294 1.622-1.128 2.335-.893 2.335-.893.463 1.2.171 2.085.084 2.306.545.609.874 1.387.874 2.339 0 3.347-1.987 4.084-3.88 4.3.304.27.576.801.576 1.614 0 1.165-.01 2.105-.01 2.391 0 .233.153.504.584.419C14.567 15.829 17 12.565 17 8.716 17 3.902 13.194 0 8.5 0S0 3.902 0 8.716z"/>
</svg>
