<svg id="Layer_1" data-name="Layer 1" xmlns="http://www.w3.org/2000/svg" viewBox="0 0 40 40" width="20" height="20" fill="#fff">
  <title>icons</title>
  <path
    d="M37.57,16.66a4.66,4.66,0,0,0-5.28-2.6,5.8,5.8,0,0,0-2.18,1,.15.15,0,0,1-.19,0l-.54-.28a19.83,19.83,0,0,0-4.8-1.62A22.4,22.4,0,0,0,22,12.77l-.56,0v-.1c.05-.69.09-1.39.14-2.08a10,10,0,0,1,.35-1.88,4.27,4.27,0,0,1,.58-1.31,1,1,0,0,1,.74-.5,3.29,3.29,0,0,1,.77,0,1.3,1.3,0,0,1,.81.54c.29.33.57.66.87,1a3.8,3.8,0,0,0,2.12,1.17,5.54,5.54,0,0,0,.57.07V6.85A2,2,0,0,1,28,6.73a.9.9,0,0,1-.25-.23,11.11,11.11,0,0,0-1.25-1.32,4.53,4.53,0,0,0-3.59-1.12,4,4,0,0,0-2.15,1,5,5,0,0,0-1.3,2,15.08,15.08,0,0,0-.85,4.56c0,.36,0,.72-.05,1.1l-.45,0a22.9,22.9,0,0,0-2.94.43A19.27,19.27,0,0,0,10.11,15a.23.23,0,0,1-.26,0,5.29,5.29,0,0,0-4-1A4.25,4.25,0,0,0,3.5,15.18a4.73,4.73,0,0,0-1.39,4.57A5.1,5.1,0,0,0,3.6,22.47a.14.14,0,0,1,0,.17,7.94,7.94,0,0,0-.13,2.75,8.91,8.91,0,0,0,.83,2.73A11.58,11.58,0,0,0,7.53,32,16.54,16.54,0,0,0,11.7,34.4,21.58,21.58,0,0,0,18.88,36a23.56,23.56,0,0,0,4.44-.21,21,21,0,0,0,3.3-.74,17.22,17.22,0,0,0,6-3.16,11.28,11.28,0,0,0,2.87-3.46,8.6,8.6,0,0,0,1-4,8.42,8.42,0,0,0-.2-1.73.19.19,0,0,1,.06-.2c.16-.16.31-.32.45-.49A5.2,5.2,0,0,0,38,19.07,4.76,4.76,0,0,0,37.57,16.66Zm-33,3.45c-.07-.24-.16-.48-.21-.72a2.92,2.92,0,0,1,.14-1.8,2.18,2.18,0,0,1,1.84-1.37,2.75,2.75,0,0,1,1.47.2l.06,0A11.8,11.8,0,0,0,4.61,20.1Zm29,7.25a9.39,9.39,0,0,1-2.58,3A15.63,15.63,0,0,1,25.62,33a20.27,20.27,0,0,1-3.08.63,24.34,24.34,0,0,1-2.69.16,19.46,19.46,0,0,1-7.53-1.53,14,14,0,0,1-3.73-2.28A8.78,8.78,0,0,1,6.2,26.76a6,6,0,0,1,.18-5.25,8.89,8.89,0,0,1,2.35-2.89A14.72,14.72,0,0,1,13.44,16,19.14,19.14,0,0,1,17,15.15a20,20,0,0,1,3.46-.22,19.3,19.3,0,0,1,2.63.22,18.34,18.34,0,0,1,4.54,1.26A13.53,13.53,0,0,1,32,19.27a8,8,0,0,1,2,3.18A6.11,6.11,0,0,1,33.51,27.36Zm1.93-7.31,0,.07a12.38,12.38,0,0,0-3.26-3.69c.25-.07.5-.15.75-.2a2.47,2.47,0,0,1,1.76.33,2.19,2.19,0,0,1,1,1.53A3.29,3.29,0,0,1,35.44,20.05Z"/>
  <path
    d="M32.6,12.17a3.95,3.95,0,1,0-3.93-3.95A4,4,0,0,0,32.6,12.17Zm0-6.48a2.54,2.54,0,1,1-2.54,2.54A2.54,2.54,0,0,1,32.61,5.69Z"/>
  <path d="M25.6,19.69a2.54,2.54,0,1,0,2.54,2.54A2.54,2.54,0,0,0,25.6,19.69Z"/>
  <path d="M16.94,22.23a2.55,2.55,0,1,0-2.53,2.54A2.55,2.55,0,0,0,16.94,22.23Z"/>
  <path
    d="M25.21,29.18a14.94,14.94,0,0,1-4.82.88,15.87,15.87,0,0,1-3.76-.35,11.65,11.65,0,0,1-3.18-1.15L13,28.31l.11.22a6.09,6.09,0,0,0,2.07,2.06,8.91,8.91,0,0,0,6.15,1.25,8.62,8.62,0,0,0,3.86-1.54,5.6,5.6,0,0,0,1.67-1.79,1.83,1.83,0,0,0,.1-.2l-.09.06A8.56,8.56,0,0,1,25.21,29.18Z"/>
</svg>
