<svg xmlns="http://www.w3.org/2000/svg" xmlns:xlink="http://www.w3.org/1999/xlink" viewBox="0 0 253.453 291.772"><defs><style>.a{fill:url(#a);}.b{fill:url(#b);}.c{fill:url(#c);}.d{fill:url(#d);}.e{fill:url(#e);}.f{fill:url(#f);}.g{fill:url(#g);}.h{fill:#fff;}</style><linearGradient id="a" x1="0.021" y1="0.483" x2="0.997" y2="0.483" gradientUnits="objectBoundingBox"><stop offset="0" stop-color="#0e1832"/><stop offset="1" stop-color="#00c"/></linearGradient><linearGradient id="b" x1="0.534" y1="0.919" x2="0.336" y2="-0.05" gradientUnits="objectBoundingBox"><stop offset="0" stop-color="#0e1832"/><stop offset="1" stop-color="#164da1"/></linearGradient><linearGradient id="c" x1="0.792" y1="0.075" x2="0.208" y2="0.925" gradientUnits="objectBoundingBox"><stop offset="0" stop-color="#164da1"/><stop offset="1" stop-color="#2a3686"/></linearGradient><linearGradient id="d" x1="1.244" y1="0.624" x2="0.247" y2="0.124" xlink:href="#b"/><linearGradient id="e" x1="1.186" y1="0.441" x2="0.119" y2="0.778" xlink:href="#b"/><linearGradient id="f" x1="-0.247" y1="0.628" x2="0.75" y2="0.128" xlink:href="#b"/><linearGradient id="g" x1="0.337" y1="-0.052" x2="0.534" y2="0.918" gradientUnits="objectBoundingBox"><stop offset="0" stop-color="#0e1832"/><stop offset="1" stop-color="#2a3686"/></linearGradient></defs><g transform="translate(-493.303 -2255)"><g transform="translate(493.303 2255)"><g transform="translate(0)"><path class="a" d="M375.7,434.772l.771-.436-.771-.436Z" transform="translate(-249.745 -288.433)"/><path class="b" d="M125.955,288.786.738,215.6,0,361.5l125.955-71.845Z" transform="translate(0 -143.319)"/><path class="c" d="M127.418,5.666v139.8l.771.436L254.916,73.589,128.927,0,2.2,72.281l125.218,73.186Z" transform="translate(-1.462)"/><path class="d" d="M378,291.815,503.956,365.4l.771-145.9Z" transform="translate(-251.273 -145.911)"/><path class="e" d="M0,508.345l125.955,73.589V436.5Z" transform="translate(0 -290.161)"/><path class="f" d="M376.2,436.132l-1.5,145,127.845-72.065L376.966,434.2Z" transform="translate(-250.242 -289.358)"/></g><path class="g" d="M375.7,146.339V0L503.2,73.589Z" transform="translate(-250.198)"/><g transform="translate(64.373 97.308)"><g transform="translate(64.805 22.73)"><path class="h" d="M411.592,324.7V296.236a37.972,37.972,0,0,0-5.833-.436c-.235,0-.469.034-.7.034A38.22,38.22,0,0,0,383.9,302.1c1.073.905,2.146,1.844,3.185,2.883a38,38,0,0,1,10.829,20.35,9.666,9.666,0,0,1,7.107-2.917h.034A9.572,9.572,0,0,1,411.592,324.7Z" transform="translate(-383.9 -295.8)"/></g><g transform="translate(0)"><path class="h" d="M286.986,288.145a6.457,6.457,0,0,1-.034.8,10.551,10.551,0,0,1-3.051,6.839,10.021,10.021,0,0,1-7.342,3.185h-.034a9.77,9.77,0,0,1-7.309-3.185,10.419,10.419,0,0,1-3.051-7.61,4.5,4.5,0,0,1,.034-.671,34.776,34.776,0,0,0-4.057-16.461,38.139,38.139,0,0,0-6.873-9.287c-.905-.905-1.81-1.743-2.749-2.548a35.329,35.329,0,0,0-22.63-8.482h-.8c-10.862,0-20.015,3.587-27.39,10.762a35.606,35.606,0,0,0-11.1,26.552v.067a36.022,36.022,0,0,0,11.1,26.418,38.2,38.2,0,0,0,47.372,5c-.872-.738-1.743-1.542-2.581-2.347a38.188,38.188,0,0,1-11.164-20.987,10.072,10.072,0,0,1-14.248-.436,10.548,10.548,0,0,1-3.051-7.644,10.733,10.733,0,0,1,3.017-7.677,9.7,9.7,0,0,1,5.4-2.95,12.33,12.33,0,0,1,1.944-.168,9.986,9.986,0,0,1,6.37,2.179c.2.2.436.4.637.6a12.4,12.4,0,0,1,3.252,5.9,11.216,11.216,0,0,1,.168,2.112,39.912,39.912,0,0,0,.771,7.744,33.242,33.242,0,0,0,9.89,18.271c.872.872,2.95,2.648,3.084,2.783a36.072,36.072,0,0,0,22.127,8.549c.637.033,1.308.033,1.944.033h.034c8.549,0,17.8-1.877,26.72-10.963a37.192,37.192,0,0,0,11.063-26.418V228H287.019Z" transform="translate(-190.6 -228)"/></g></g></g></g></svg>