<svg xmlns="http://www.w3.org/2000/svg" viewBox="0 0 780.9 895.3">
    <defs>
        <style>
            .cls-1,.cls-5{fill:#436ab2; }.cls-1{opacity:0.1;}.cls-2{fill:#fdc458;}.cls-3{fill:#f48772;}.cls-4{fill:#b561a5;}.cls-6{fill:#ee589f;}
        </style>
    </defs>
    <title>Asset 1</title>
    <g id="Layer_2" data-name="Layer 2" fill="#fff" fill-rule="evenodd">
        <g id="Layer_8" data-name="Layer 8" >
            <polygon class="cls-1" fill="#000" stroke="red" stroke-width="" fill-rule="evenodd"
                     points="766.4 235.05 764.4 231.59 389.65 447.5 389.65 17.93 385.65 17.93 385.65 446.2 12.39 230.04 10.38 233.5 384.76 450.31 11.9 665.13 13.9 668.59 385.65 454.42 385.65 881.25 389.65 881.25 389.65 453.14 760.92 668.14 762.92 664.68 392.76 450.32 766.4 235.05"/>
            <path class="cls-2"
                  d="M460,381H344.29a2,2,0,0,0-2,2v35.35a2,2,0,0,0,2,2H460a2,2,0,0,0,2-2V383A2,2,0,0,0,460,381Zm-2,35.35H346.29V385H458Z"/>
            <path class="cls-2" d="M407.16,398h13.58a2,2,0,0,0,0-4H407.16a2,2,0,0,0,0,4Z"/>
            <path class="cls-2" d="M386.33,398h12.09a2,2,0,1,0,0-4H386.33a2,2,0,1,0,0,4Z"/>
            <path class="cls-2" d="M428.74,398H446a2,2,0,0,0,0-4h-17.3a2,2,0,0,0,0,4Z"/>
            <path class="cls-2" d="M410.37,405.7a2,2,0,0,0,2,2H426a2,2,0,0,0,0-4H412.37A2,2,0,0,0,410.37,405.7Z"/>
            <path class="cls-2" d="M386.33,407.7h18.79a2,2,0,0,0,0-4H386.33a2,2,0,0,0,0,4Z"/>
            <path class="cls-2" d="M446,403.7H434.69a2,2,0,0,0,0,4H446a2,2,0,0,0,0-4Z"/>
            <path class="cls-2"
                  d="M358.4,402.73l-.85,5a2,2,0,0,0,2.9,2.11l4.46-2.34,4.46,2.34a2,2,0,0,0,.93.23,2,2,0,0,0,2-2.34l-.85-5,3.6-3.52a2,2,0,0,0-1.1-3.41l-5-.72-2.22-4.52a2,2,0,0,0-1.8-1.11,2,2,0,0,0-1.79,1.11l-2.23,4.52-5,.72a2,2,0,0,0-1.11,3.41Zm4.11-3.84a2,2,0,0,0,1.5-1.1l.9-1.82.9,1.82a2,2,0,0,0,1.51,1.1l2,.29-1.46,1.42a2,2,0,0,0-.57,1.77l.34,2-1.8-.94a2,2,0,0,0-1.86,0l-1.8.94.34-2a2,2,0,0,0-.57-1.77l-1.46-1.42Z"/>
            <path class="cls-2"
                  d="M327.31,450.31H443a2,2,0,0,0,2-2V428.85a2,2,0,0,0-4,0v17.46H329.31v-31h3.62a2,2,0,0,0,0-4h-5.62a2,2,0,0,0-2,2v35A2,2,0,0,0,327.31,450.31Z"/>
            <path class="cls-2" d="M409,437.66a2,2,0,0,0,0-4H383.49a2,2,0,0,0,0,4Z"/>
            <path class="cls-2" d="M377.72,437.66a2,2,0,0,0,0-4H358.93a2,2,0,0,0,0,4Z"/>
            <path class="cls-2" d="M339.59,437.66h11.35a2,2,0,0,0,0-4H339.59a2,2,0,0,0,0,4Z"/>
            <path class="cls-2" d="M429.06,437.66a2,2,0,0,0,0-4H417.71a2,2,0,0,0,0,4Z"/>
            <path class="cls-2"
                  d="M443,489.09a2,2,0,0,0-2,2v17.45H329.31v-31h3.62a2,2,0,1,0,0-4h-5.62a2,2,0,0,0-2,2v35a2,2,0,0,0,2,2H443a2,2,0,0,0,2-2V491.09A2,2,0,0,0,443,489.09Z"/>
            <path class="cls-2" d="M409,499.9a2,2,0,0,0,0-4H383.49a2,2,0,0,0,0,4Z"/>
            <path class="cls-2" d="M377.72,499.9a2,2,0,0,0,0-4H358.93a2,2,0,1,0,0,4Z"/>
            <path class="cls-2" d="M339.59,499.9h11.35a2,2,0,0,0,0-4H339.59a2,2,0,0,0,0,4Z"/>
            <path class="cls-2" d="M429.06,499.9a2,2,0,1,0,0-4H417.71a2,2,0,1,0,0,4Z"/>
            <path class="cls-2"
                  d="M459.25,443.77h-5.62a2,2,0,0,0,0,4h3.62v31H345.55V461.32a2,2,0,0,0-4,0v19.46a2,2,0,0,0,2,2h115.7a2,2,0,0,0,2-2v-35A2,2,0,0,0,459.25,443.77Z"/>
            <path class="cls-2" d="M377.59,466.13a2,2,0,0,0,0,4h25.48a2,2,0,1,0,0-4Z"/>
            <path class="cls-2" d="M408.84,466.13a2,2,0,0,0,0,4h18.78a2,2,0,0,0,0-4Z"/>
            <path class="cls-2" d="M433.62,468.13a2,2,0,0,0,2,2H447a2,2,0,0,0,0-4H435.62A2,2,0,0,0,433.62,468.13Z"/>
            <path class="cls-2" d="M357.5,466.13a2,2,0,0,0,0,4h11.34a2,2,0,1,0,0-4Z"/>
            <path class="cls-3" d="M278.68,505.53a6.25,6.25,0,1,0,6.25,6.25A6.24,6.24,0,0,0,278.68,505.53Z"/>
            <path class="cls-3" d="M501.53,508.11a6.25,6.25,0,1,0,6.24,6.25A6.25,6.25,0,0,0,501.53,508.11Z"/>
            <path class="cls-3" d="M388.91,329.83a6.25,6.25,0,1,0-6.25-6.25A6.25,6.25,0,0,0,388.91,329.83Z"/>
            <path class="cls-3"
                  d="M529.84,529.53a32.19,32.19,0,0,0-7.15-38.15,32.54,32.54,0,0,0-7.1-4.89,129.67,129.67,0,0,0,4.82-35.07c0-3-.11-6-.32-9a6.24,6.24,0,0,0-1.37-11.74,129.19,129.19,0,0,0-14.06-41,6.23,6.23,0,0,0-4.6-10.46,6.08,6.08,0,0,0-1.61.22,130.87,130.87,0,0,0-32.19-33.32,6.18,6.18,0,0,0,.64-2.75,6.25,6.25,0,0,0-11-4,127.82,127.82,0,0,0-35.28-14.06,32.57,32.57,0,0,0-.12-3.82,32.15,32.15,0,0,0-30.39-29.2l.19-112.21h-4l-.19,112.27-.55,0a32.15,32.15,0,0,0-29.15,34.14,128.68,128.68,0,0,0-30.31,12.69,6.24,6.24,0,0,0-10.36,6.68,130.26,130.26,0,0,0-32.45,33.45,6.39,6.39,0,0,0-1.25-.12,6.24,6.24,0,0,0-6.24,6.25,6.16,6.16,0,0,0,1.4,3.93A129.36,129.36,0,0,0,263,430.76a6.24,6.24,0,0,0-1.34,11.48c-.21,3-.33,6.1-.33,9.18a130.15,130.15,0,0,0,3.94,31.76,32.14,32.14,0,0,0-15.2,44.93L140,590.88l2,3.47L252.2,531.49a32.82,32.82,0,0,0,4.39,4.91,32.08,32.08,0,0,0,21.59,8.36c1,0,2,0,3-.14a32,32,0,0,0,14.71-5.14,129.73,129.73,0,0,0,30,24,7,7,0,0,0-.07.92,6.24,6.24,0,0,0,10.54,4.53,129.81,129.81,0,0,0,44.85,11.69,6.24,6.24,0,0,0,12,.34,129.05,129.05,0,0,0,49.89-10.87,6.23,6.23,0,0,0,10.36-4.69c0-.14,0-.29,0-.43a130.29,130.29,0,0,0,29.93-22.79l-.54-.53A32,32,0,0,0,501,547.34c1,0,2-.05,3-.14A32.05,32.05,0,0,0,527.83,533l104,62.34,2.06-3.43Zm-144-233.16c.87-.08,1.73-.12,2.59-.12a28.15,28.15,0,0,1,28,25.6,27.84,27.84,0,0,1,0,5l-.32,1.57.13,0a28.14,28.14,0,0,1-25.3,24c-.87.08-1.73.12-2.59.12a28.15,28.15,0,0,1-2.52-56.19ZM280.77,540.64c-.87.08-1.73.12-2.59.12a28.16,28.16,0,0,1-2.52-56.2c.87-.08,1.73-.12,2.59-.12a28.16,28.16,0,0,1,2.52,56.2Zm171.06,20.6a6.23,6.23,0,0,0-10.91,4.14,6,6,0,0,0,.12,1.2,125.05,125.05,0,0,1-47.9,10.36,6.24,6.24,0,0,0-11.68-.33,125.67,125.67,0,0,1-43.23-11.25,6.24,6.24,0,0,0-10.51-5.46,125.77,125.77,0,0,1-28.66-22.85,32.14,32.14,0,0,0-20.81-56.61h0c-1,0-2,.05-2.95.14a32.19,32.19,0,0,0-6.27,1.2,125.69,125.69,0,0,1-3.72-30.36c0-2.85.13-5.68.32-8.49A6.24,6.24,0,0,0,267,431a125.63,125.63,0,0,1,13.55-39.45,5.82,5.82,0,0,0,1.45.18,6.24,6.24,0,0,0,4.72-10.33,126.31,126.31,0,0,1,31.72-32.51,6.25,6.25,0,0,0,9.22-5.5c0-.14,0-.28,0-.42a124.76,124.76,0,0,1,29.25-12.4,32.17,32.17,0,0,0,31.53,26c1,0,2,0,2.95-.13a32.18,32.18,0,0,0,28.87-27.1,124.44,124.44,0,0,1,34.19,13.83c0,.07,0,.14,0,.21a6.25,6.25,0,0,0,6.25,6.25,6.13,6.13,0,0,0,2.73-.64,126.83,126.83,0,0,1,31.73,32.67,6.24,6.24,0,0,0,4.94,10.06,6.5,6.5,0,0,0,1.09-.1,125.09,125.09,0,0,1,13.59,39.52,6.24,6.24,0,0,0,1.38,11.75c.19,2.83.29,5.67.29,8.54a126.08,126.08,0,0,1-4.53,33.48A31.93,31.93,0,0,0,501.09,483h0c-1,0-2,.05-2.95.14A32.15,32.15,0,0,0,479.44,539c.24.22.5.44.75.65A126.32,126.32,0,0,1,451.83,561.24Zm51.79-18c-.87.08-1.74.12-2.59.12a28.16,28.16,0,0,1-2.53-56.2c.87-.08,1.74-.12,2.59-.12a28.16,28.16,0,0,1,2.53,56.2Z"/>
            <path class="cls-4" d="M642.48,588.14a11.38,11.38,0,1,1-15.82-2.94A11.39,11.39,0,0,1,642.48,588.14Z"/>
            <path class="cls-5"
                  d="M767.1,655.89l2.13-414a11.38,11.38,0,1,0-13.05-17.25L399.1,16a11.37,11.37,0,1,0-21.84,3.76l-357,204.45a11.38,11.38,0,1,0-10.76,18.3L9.3,650.39a11.38,11.38,0,1,0,9.06,20.79L376,880.14a11.38,11.38,0,1,0,21.6.39L757.49,675.22a11.38,11.38,0,1,0,9.61-19.33ZM395.76,877a11.36,11.36,0,0,0-17.77-.33L21.68,668.49A11.37,11.37,0,0,0,14,649.82a5.78,5.78,0,0,0-.72,0l.23-407.3a11.38,11.38,0,0,0,9.19-10.14,11.17,11.17,0,0,0-.53-4.59L379.44,23.15a11.36,11.36,0,0,0,18.67-3.07l356.4,208.23a11.81,11.81,0,0,0-.33,1.81,11.39,11.39,0,0,0,10.31,12.37l.74,0L763.1,656a11.35,11.35,0,0,0-7.9,15.9Z"/>
            <path class="cls-4"
                  d="M777.34,657.31a15.3,15.3,0,0,0-10.42-5.48c-.47,0-.95-.06-1.41-.06A15.27,15.27,0,0,0,752,659.83L635.25,591.34l-2,3.45,117.34,68.84a16.32,16.32,0,0,0-.36,2.13,15.4,15.4,0,0,0,13.92,16.71c.47,0,1,.07,1.41.07a15.38,15.38,0,0,0,11.81-25.23Zm-.48,10.88a11.4,11.4,0,0,1-11.33,10.35c-.34,0-.69,0-1,0a11.38,11.38,0,0,1,1-22.72,9.16,9.16,0,0,1,1,.05A11.38,11.38,0,0,1,776.86,668.19Z"/>
            <path class="cls-4"
                  d="M637.62,596.06,397.26,176.9a11.37,11.37,0,0,0-8.12-17.83l1.05-128.51a15.37,15.37,0,0,0,9.38-25A15.3,15.3,0,0,0,389.15.06q-.7-.06-1.41-.06a15.38,15.38,0,0,0-11.81,25.23,15.28,15.28,0,0,0,10.25,5.45l-1,128.68a11.36,11.36,0,0,0-6.85,17L136.85,596.06Zm-493.86-4L381.13,179.5a11.37,11.37,0,0,0,13.19.31l236.4,412.25ZM376.42,14.35A11.37,11.37,0,0,1,387.74,4c.34,0,.69,0,1,0a11.38,11.38,0,0,1-1,22.72c-.34,0-.69,0-1-.05A11.38,11.38,0,0,1,376.42,14.35Z"/>
            <path class="cls-4" d="M143.38,606.1a11.38,11.38,0,1,1,10.3-12.37A11.38,11.38,0,0,1,143.38,606.1Z"/>
            <path class="cls-6"
                  d="M394.5,724.46a11.37,11.37,0,0,0-15.91,2.41c-.17.23-.31.46-.46.69L156.3,601.23a15.37,15.37,0,0,0-13.94-21.85h0c-.47,0-.94,0-1.41.07a15.38,15.38,0,0,0,1.38,30.7c.47,0,.95,0,1.41-.06a15.33,15.33,0,0,0,10.42-5.47L376.62,731.3a11.38,11.38,0,1,0,17.88-6.84ZM143.38,606.1c-.35,0-.7,0-1,0a11.38,11.38,0,0,1-1-22.72c.35,0,.7,0,1,0a11.38,11.38,0,0,1,1,22.72Z"/>
            <circle class="cls-3" cx="142.29" cy="594.77" r="6.25"
                    transform="translate(-445.03 424.33) rotate(-60.36)"/>
            <path class="cls-6"
                  d="M645.78,585.88a15.38,15.38,0,0,0-10.17-6.47l1.75-260a11.37,11.37,0,1,0-4-.2l-1.75,260.09a15.38,15.38,0,1,0,14.17,6.6ZM639.55,604a11.39,11.39,0,1,1,2.93-15.83A11.37,11.37,0,0,1,639.55,604Z"/>
            <circle class="cls-3" cx="633.1" cy="594.59" r="6.25" transform="translate(-196.77 850.84) rotate(-60.36)"/>
            <path class="cls-6"
                  d="M399.75,160.54a15.3,15.3,0,0,0-10.42-5.48q-.7-.06-1.41-.06a15.38,15.38,0,0,0-14,21.77L152,303.18c-.15-.23-.29-.47-.46-.69a11.42,11.42,0,1,0,2,4.43L376.06,180.16l.05.07a15.27,15.27,0,0,0,10.43,5.47,13.31,13.31,0,0,0,1.41.07,15.38,15.38,0,0,0,11.8-25.23Zm-.48,10.88A11.38,11.38,0,0,1,388,181.77c-.35,0-.7,0-1.05-.05a11.38,11.38,0,0,1,1-22.72c.35,0,.7,0,1.05.05A11.38,11.38,0,0,1,399.27,171.42Z"/>
            <circle class="cls-3" cx="387.93" cy="170.38" r="6.25" transform="translate(48.01 423.31) rotate(-60.36)"/>
        </g>
    </g>
</svg>