<svg xmlns="http://www.w3.org/2000/svg" width="16" height="14" viewBox="0 0 16 14">
    <path fill="#FFF" fill-rule="evenodd" d="M14.115 2.213A3.501 3.501 0 0 0 15.558.26a6.293 6.293 0 0 1-2.085.857C12.876.43 12.022 0 11.077 0 9.265 0 7.796 1.582 7.796 3.534c0 .277.027.547.083.805C5.152 4.19 2.734 2.786 1.114.646A3.735 3.735 0 0 0 .67 2.424c0 1.225.579 2.307 1.46 2.942a3.118 3.118 0 0 1-1.488-.442v.044c0 1.712 1.131 3.141 2.635 3.465a2.998 2.998 0 0 1-.866.124c-.212 0-.418-.021-.617-.063.417 1.404 1.63 2.427 3.066 2.454-1.124.949-2.54 1.513-4.077 1.513-.265 0-.527-.015-.783-.048A8.823 8.823 0 0 0 5.032 14c6.038 0 9.339-5.385 9.339-10.056 0-.153-.002-.306-.009-.457A6.954 6.954 0 0 0 16 1.657a6.194 6.194 0 0 1-1.885.556z"/>
</svg>
